<?xml version="1.0" encoding="utf-8"?>
<!-- Generator: Adobe Illustrator 19.0.0, SVG Export Plug-In . SVG Version: 6.00 Build 0)  -->
<svg version="1.1" id="Layer_1" xmlns="http://www.w3.org/2000/svg" xmlns:xlink="http://www.w3.org/1999/xlink" x="0px" y="0px"
	 viewBox="0 0 30.2 26.9" enable-background="new 0 0 30.2 26.9" xml:space="preserve">
<path id="XMLID_1_" fill="#FFFFFF" d="M1.5,9.8l13.7,13.1L28.7,9.8l1.5,3.5L16.5,26.5c-0.4,0.3-0.8,0.4-1.3,0.4
	c-0.2,0-0.5,0-0.7-0.1c-0.3-0.1-0.5-0.2-0.8-0.4L0,13.3L1.5,9.8z M5.6,0l9.6,9.2l9.5-9.1l1.4,3.4l-9.6,9.2c-0.4,0.3-1.3,0.4-1.3,0.4
	s-0.5,0-0.7-0.1c-0.3-0.1-0.5-0.2-0.8-0.4L4.1,3.4L5.6,0z"/>
</svg>
